<svg xmlns="http://www.w3.org/2000/svg" xmlns:xlink="http://www.w3.org/1999/xlink" viewBox="0,0,256,256" width="50px" height="50px"><g fill="#a2a2a2" fill-rule="nonzero" stroke="none" stroke-width="1" stroke-linecap="butt" stroke-linejoin="miter" stroke-miterlimit="10" stroke-dasharray="" stroke-dashoffset="0" font-family="none" font-weight="none" font-size="none" text-anchor="none" style="mix-blend-mode: normal"><g transform="scale(5.12,5.12)"><path d="M2,14.875c-1.105,0 -2,0.895 -2,2v11.85938c0,1.105 0.895,2 2,2h3.16602c1.105,0 2,-0.895 2,-2v-0.45508c0.25,0.42 0.55325,0.81387 0.90625,1.17188l0.03711,0.03711c0.015,0.016 0.03006,0.03202 0.03906,0.04102l0.04688,0.04883c1.184,1.136 2.7502,1.76172 4.4082,1.76172c1.535,0 2.91842,-0.46053 3.98242,-1.26953c0.994,0.802 2.20989,1.26953 3.46289,1.26953c0.65971,0 1.23423,-0.11182 1.76758,-0.33984h8.66992h5.69336h0.04297h4.20898c0.14,0 0.27414,-0.0572 0.36914,-0.1582l1.35156,-1.44727c0.198,-0.212 0.53928,-0.212 0.73828,0l1.35156,1.44727c0.094,0.101 0.22914,0.1582 0.36914,0.1582h4.25195c0.435,0 0.66214,-0.50631 0.36914,-0.82031l-3.59766,-3.84961c-0.175,-0.187 -0.175,-0.47316 0,-0.66016l3.59766,-3.84961c0.294,-0.315 0.06681,-0.82031 -0.36719,-0.82031h-4.25391c-0.14,0 -0.27414,0.0572 -0.36914,0.1582l-1.35156,1.44727c-0.198,0.212 -0.53928,0.212 -0.73828,0l-1.35156,-1.44727c-0.095,-0.101 -0.22914,-0.1582 -0.36914,-0.1582h-4.25195c-0.02934,0 -0.04882,0.01905 -0.07617,0.02344c-0.03458,-0.00715 -0.07257,-0.0231 -0.10352,-0.02344h-5.51367v-2.44336h5.73633c0.277,0 0.5,-0.22023 0.5,-0.49023v-2.57617c0,-0.27 -0.224,-0.49023 -0.5,-0.49023h-5.73633h-4.5918c-0.15068,-0.03624 -0.30496,-0.06055 -0.4668,-0.06055h-3.16602c-1.105,0 -2,0.895 -2,2v1.91016c-0.07,-0.003 -0.14189,-0.00586 -0.21289,-0.00586c-1.415,0 -2.76955,0.58778 -3.81055,1.55078c-1,-0.805 -2.24676,-1.24609 -3.63476,-1.24609c-0.563,0 -1.11267,0.07198 -1.63867,0.20898c0,-0.018 0,-0.03569 0,-0.05469v-2.42773c0,-1.105 -0.896,-2 -2,-2zM2,16.875h6.96484v2.42773h-3.79883v2.14844h3.79883v1.65625c0.751,-1.179 2.10167,-1.95898 3.63867,-1.95898c1.866,0 3.12698,1.14347 3.70898,2.73047c0.017,0.052 0.02402,0.10425 0.04102,0.15625c0.388,-1.838 2.06631,-3.18945 3.69531,-3.18945c0.836,0 1.61289,0.3637 2.21289,0.9707v-4.87695h3.02539v1.61719v2.66602v3.55664v2.66602v1.43555h-3.02539v-0.75391c-0.819,0.997 -1.37689,1.21484 -2.21289,1.21484c-1.42748,0 -2.86509,-1.04384 -3.48047,-2.54297c-0.44,1.394 -1.80784,2.54297 -3.96484,2.54297c-1.182,0 -2.24549,-0.46008 -3.02148,-1.20508c-0.025,-0.026 -0.05098,-0.05994 -0.08398,-0.08594c-0.718,-0.728 -1.16602,-1.71778 -1.16602,-2.80078c0,-0.485 0.09409,-0.94414 0.24609,-1.36914h-3.41211v4.85352h-3.16602zM12.46094,22.64844c-0.633,0 -1.18274,0.50247 -1.42774,1.23047h2.86133c-0.253,-0.728 -0.80059,-1.23047 -1.43359,-1.23047zM20.67383,22.66406c-0.87,0 -1.57812,0.955 -1.57812,2.125c0,1.17 0.70812,2.12305 1.57813,2.12305c0.878,0 1.58789,-0.95305 1.58789,-2.12305c0,-1.17 -0.70989,-2.125 -1.58789,-2.125zM36.72266,22.79688l2.68555,2.87305c0.175,0.187 0.175,0.47316 0,0.66016l-2.68555,2.87305v-1.26953c0,-0.27 -0.224,-0.49023 -0.5,-0.49023h-5.73633v-3.17969h5.73633c0.276,0 0.5,-0.21924 0.5,-0.49023zM11.03125,25.69922c-0.017,0.286 0.11966,1.52734 1.59766,1.52734c0.573,0 0.8962,-0.22633 1.1582,-0.48633h2.75781c-0.129,-0.328 -0.21777,-0.67802 -0.25977,-1.04102zM16.54688,26.74023c0.00679,0.01844 0.01372,0.0382 0.02148,0.05664c0.006,-0.019 0.01258,-0.03764 0.01758,-0.05664z"></path></g></g></svg>