<svg xmlns="http://www.w3.org/2000/svg" xmlns:xlink="http://www.w3.org/1999/xlink" viewBox="0,0,256,256" width="64px" height="64px"><g fill="#a2a2a2" fill-rule="nonzero" stroke="none" stroke-width="1" stroke-linecap="butt" stroke-linejoin="miter" stroke-miterlimit="10" stroke-dasharray="" stroke-dashoffset="0" font-family="none" font-weight="none" font-size="none" text-anchor="none" style="mix-blend-mode: normal"><g transform="scale(8,8)"><path d="M3,6c-0.41458,-0.00068 -0.78659,0.25449 -0.93524,0.6415c-0.14865,0.38701 -0.04311,0.82561 0.26532,1.10264l9.17383,8.25586l-9.17383,8.25586c-0.30843,0.27703 -0.41397,0.71563 -0.26532,1.10264c0.14865,0.38701 0.52066,0.64218 0.93524,0.6415h6c0.24726,0.00046 0.48592,-0.09069 0.66992,-0.25586l10,-9c0.21125,-0.18969 0.33193,-0.46022 0.33193,-0.74414c0,-0.28392 -0.12067,-0.55445 -0.33193,-0.74414l-10,-9c-0.184,-0.16517 -0.42266,-0.25632 -0.66992,-0.25586zM23,6c-0.24726,-0.00046 -0.48592,0.09069 -0.66992,0.25586l-4.00977,3.60938c-0.2106,0.18965 -0.33084,0.45976 -0.33084,0.74316c0,0.28341 0.12024,0.55351 0.33084,0.74316l3,2.70117c0.38032,0.34221 0.95757,0.34221 1.33789,0l7.01172,-6.30859c0.30843,-0.27703 0.41397,-0.71563 0.26532,-1.10264c-0.14865,-0.38701 -0.52066,-0.64218 -0.93524,-0.6415zM5.60742,8h3.00977l8.88672,8l-8.88672,8h-3.00977l8.0625,-7.25586c0.21125,-0.18969 0.33193,-0.46022 0.33193,-0.74414c0,-0.28392 -0.12067,-0.55445 -0.33193,-0.74414zM23.38477,8h3.00781l-4.40234,3.96289l-1.50586,-1.35352zM22.02344,17.69141c-0.25865,-0.0089 -0.51069,0.08281 -0.70313,0.25586l-3,2.70117c-0.2106,0.18965 -0.33084,0.45976 -0.33084,0.74316c0,0.28341 0.12024,0.55351 0.33084,0.74316l4.00977,3.60938c0.184,0.16517 0.42266,0.25632 0.66992,0.25586h6c0.41458,0.00068 0.78659,-0.25449 0.93524,-0.6415c0.14865,-0.38701 0.04311,-0.82561 -0.26532,-1.10264l-7.01172,-6.30859c-0.17491,-0.15728 -0.39967,-0.24788 -0.63477,-0.25586zM21.99023,20.03516l4.40234,3.96484h-3.00977l-2.89844,-2.60937z"></path></g></g></svg>