<svg xmlns="http://www.w3.org/2000/svg" xmlns:xlink="http://www.w3.org/1999/xlink" viewBox="0,0,256,256" width="50px" height="50px"><g fill="#a2a2a2" fill-rule="nonzero" stroke="none" stroke-width="1" stroke-linecap="butt" stroke-linejoin="miter" stroke-miterlimit="10" stroke-dasharray="" stroke-dashoffset="0" font-family="none" font-weight="none" font-size="none" text-anchor="none" style="mix-blend-mode: normal"><g transform="scale(5.12,5.12)"><path d="M10,5c-2.74952,0 -5,2.25048 -5,5v18.22852c-0.00843,0.07463 -0.00843,0.14998 0,0.22461v11.54688c0,2.74952 2.25048,5 5,5h30c2.74952,0 5,-2.25048 5,-5v-11.53906c0.00843,-0.07463 0.00843,-0.14998 0,-0.22461v-18.23633c0,-2.74952 -2.25048,-5 -5,-5zM14,10c2,0 6,6 11,6c5,0 9,-6 11,-6c2,0 2,3 2,3c0.09,0.35 1,-1 2,-1c1.431,0 2.20559,2.31401 3,3.80273v12.29297c-1.49365,2.90452 -4.50742,4.9043 -8,4.9043c-1.45487,0 -2.81443,-0.36129 -4.0293,-0.97461c-0.13472,-1.00622 -0.79869,-1.88059 -1.73047,-2.60937c-1.04588,-0.81803 -2.50968,-1.41602 -4.24023,-1.41602c-1.73056,0 -3.19435,0.59799 -4.24023,1.41602c-0.93178,0.72878 -1.59575,1.60315 -1.73047,2.60938c-1.21487,0.61332 -2.57443,0.97461 -4.0293,0.97461c-3.49258,0 -6.50635,-1.99978 -8,-4.9043v-12.29297c0.79441,-1.48872 1.569,-3.80273 3,-3.80273c1,0 1.91,1.35 2,1c0,0 0,-3 2,-3zM15,16c-3.30162,0 -6,2.69837 -6,6v2c0,3.30163 2.69838,6 6,6c3.30163,0 6,-2.69837 6,-6v-2c0,-3.30163 -2.69837,-6 -6,-6zM35,16c-3.30163,0 -6,2.69837 -6,6v2c0,3.30163 2.69837,6 6,6c3.30163,0 6,-2.69837 6,-6v-2c0,-3.30163 -2.69837,-6 -6,-6zM15,18c2.22038,0 4,1.77962 4,4v2c0,2.22038 -1.77962,4 -4,4c-2.22038,0 -4,-1.77962 -4,-4v-2c0,-2.22038 1.77962,-4 4,-4zM35,18c2.22037,0 4,1.77962 4,4v2c0,2.22038 -1.77963,4 -4,4c-2.22037,0 -4,-1.77962 -4,-4v-2c0,-2.22038 1.77963,-4 4,-4zM15,20c-0.29,0 -0.57031,0.05969 -0.82031,0.17969c0.49,0.23 0.82031,0.73031 0.82031,1.32031c0,0.83 -0.67,1.5 -1.5,1.5c-0.18,0 -0.34,-0.02984 -0.5,-0.08984v1.08984c0,1.1 0.9,2 2,2c1.1,0 2,-0.9 2,-2v-2c0,-0.55 -0.21984,-1.05016 -0.58984,-1.41016c-0.36,-0.37 -0.86016,-0.58984 -1.41016,-0.58984zM35,20c-0.29,0 -0.57031,0.05969 -0.82031,0.17969c0.49,0.23 0.82031,0.73031 0.82031,1.32031c0,0.83 -0.67,1.5 -1.5,1.5c-0.18,0 -0.34,-0.02984 -0.5,-0.08984v1.08984c0,1.1 0.9,2 2,2c1.1,0 2,-0.9 2,-2v-2c0,-0.55 -0.21984,-1.05016 -0.58984,-1.41016c-0.36,-0.37 -0.86016,-0.58984 -1.41016,-0.58984zM25,30c1.26944,0 2.30565,0.43952 3.00977,0.99023c0.66325,0.51876 0.94486,1.15429 0.97656,1.36133c-0.01742,0.05997 -0.02919,0.12143 -0.03516,0.18359c-0.07434,0.14163 -0.26585,0.36251 -0.59961,0.5918c-0.108,0.0455 -0.20717,0.10962 -0.29297,0.18945c-0.72803,0.38875 -1.83402,0.68359 -3.05859,0.68359c-1.22657,0 -2.33452,-0.29586 -3.0625,-0.68555c-0.00768,-0.00411 -0.01197,-0.0076 -0.01953,-0.01172c-0.07169,-0.0625 -0.15192,-0.11446 -0.23828,-0.1543c-0.35439,-0.23698 -0.55647,-0.46744 -0.63281,-0.61328c-0.00532,-0.0621 -0.01644,-0.12356 -0.0332,-0.18359c0.0317,-0.20704 0.31331,-0.84257 0.97656,-1.36133c0.70412,-0.55072 1.74032,-0.99023 3.00977,-0.99023zM22.13477,35.54883c0.85773,0.28259 1.82365,0.45117 2.86523,0.45117c1.04159,0 2.00751,-0.16858 2.86523,-0.45117c-0.14545,0.41401 -0.40483,0.93364 -0.78711,1.36914c-0.59134,0.67365 -1.35834,1.12109 -2.07812,1.12109c-0.71978,0 -1.48679,-0.44744 -2.07812,-1.12109c-0.38228,-0.4355 -0.64166,-0.95513 -0.78711,-1.36914z"></path></g></g></svg>