<svg xmlns="http://www.w3.org/2000/svg" xmlns:xlink="http://www.w3.org/1999/xlink" viewBox="0,0,256,256" width="50px" height="50px"><g fill="#a2a2a2" fill-rule="nonzero" stroke="none" stroke-width="1" stroke-linecap="butt" stroke-linejoin="miter" stroke-miterlimit="10" stroke-dasharray="" stroke-dashoffset="0" font-family="none" font-weight="none" font-size="none" text-anchor="none" style="mix-blend-mode: normal"><g transform="scale(5.12,5.12)"><path d="M25,2c-12.6907,0 -23,10.3093 -23,23c0,12.69071 10.3093,23 23,23c12.69071,0 23,-10.30929 23,-23c0,-12.6907 -10.30929,-23 -23,-23zM25,4c11.60982,0 21,9.39018 21,21c0,11.60982 -9.39018,21 -21,21c-11.60982,0 -21,-9.39018 -21,-21c0,-11.60982 9.39018,-21 21,-21zM25,6c-10.48157,0 -19,8.51843 -19,19c0,10.48157 8.51843,19 19,19c10.48157,0 19,-8.51843 19,-19c0,-10.48157 -8.51843,-19 -19,-19zM25,8c9.40069,0 17,7.59932 17,17c0,9.40069 -7.59931,17 -17,17c-9.40068,0 -17,-7.59931 -17,-17c0,-9.40068 7.59932,-17 17,-17zM25.32227,12l-0.77148,2h-8.08203l-3.11523,6h6.5957l-6.46875,15h3.11523l-0.69336,2h8.81836l0.82227,-2.17969c4.17143,-1.07019 8.6808,-3.37829 11.41992,-8.25c1.25325,-2.22823 1.88119,-4.06679 2.01172,-5.64258c0.13053,-1.57579 -0.27815,-2.89987 -1.03125,-3.86719c-1.21458,-1.56007 -3.04739,-2.07993 -4.71875,-2.35547l0.88672,-2.70508zM26.69336,14h1.74023l-0.66797,2h1.05273l0.66797,-2h1.86523l-0.76367,2.33008l1.24609,0.11914c1.6676,0.15855 3.6372,0.69149 4.53125,1.83984c0.44702,0.57418 0.714,1.3059 0.61719,2.47461c-0.09681,1.16871 -0.60097,2.7624 -1.76172,4.82617c-2.51817,4.47872 -6.69448,6.52588 -10.66797,7.45117l-0.52148,0.12109l-0.69336,1.83789h-1.76758l0.66797,-2h-1.05273l-0.66797,2h-1.80664l0.69336,-2h-2.88477l5.60938,-13h3.15625l-4.4707,11.5332l1.39258,0.06055c0,0 4.24774,0.16437 7.73633,-3.32422c1.71125,-1.71069 2.92123,-3.97331 3.03516,-6.09766c0.05696,-1.06218 -0.19612,-2.14928 -0.94531,-2.95312c-0.7492,-0.80385 -1.90925,-1.21875 -3.32227,-1.21875h-0.50781h-7.39062h-4.16797l1.03906,-2h8.24023zM27.42773,20h1.2832c1.04248,0 1.56224,0.26727 1.85742,0.58398c0.29518,0.31671 0.44914,0.78989 0.41211,1.48047c-0.07407,1.38115 -1.05742,3.39771 -2.45117,4.79102c-1.83449,1.83449 -3.51203,2.33452 -4.74023,2.53516z"></path></g></g></svg>