<svg xmlns="http://www.w3.org/2000/svg" xmlns:xlink="http://www.w3.org/1999/xlink" viewBox="0,0,256,256" width="64px" height="64px"><g fill="#a2a2a2" fill-rule="nonzero" stroke="none" stroke-width="1" stroke-linecap="butt" stroke-linejoin="miter" stroke-miterlimit="10" stroke-dasharray="" stroke-dashoffset="0" font-family="none" font-weight="none" font-size="none" text-anchor="none" style="mix-blend-mode: normal"><g transform="scale(8,8)"><path d="M13,4c-2.03,0 -3.5947,1.76777 -3.5957,5.00977c0,2.117 3.20392,7.54773 6.04492,12.30273c0,-12.312 -0.30322,-13.6455 -2.44922,-17.3125zM19,4c-2.188,3.604 -2.44922,4.9995 -2.44922,17.3125c2.841,-4.755 6.04492,-10.18573 6.04492,-12.30273c-0.001,-3.243 -1.5657,-5.00977 -3.5957,-5.00977zM6,8c-2.979,2.079 -1.99909,7.00042 -0.49609,8.60742c0.993,1.04 4.84609,2.91258 8.49609,5.39258zM26,8l-8,14c3.65,-2.48 7.50309,-4.35258 8.49609,-5.39258c1.503,-1.607 2.48291,-6.52842 -0.49609,-8.60742zM2,16c0.048,5.542 3.4308,7 5.7168,7h5.71484zM30,16l-11.43164,7h5.71484c2.286,0 5.6688,-1.458 5.7168,-7zM5.11719,24c0.319,1.654 1.04014,3 3.11914,3c2.079,0 4.08931,-1.2 5.19531,-3zM18.56836,24c1.106,1.8 3.11631,3 5.19531,3c2.079,0 2.80014,-1.346 3.11914,-3z"></path></g></g></svg>