<svg xmlns="http://www.w3.org/2000/svg" xmlns:xlink="http://www.w3.org/1999/xlink" viewBox="0,0,256,256" width="50px" height="50px"><g fill="#a2a2a2" fill-rule="nonzero" stroke="none" stroke-width="1" stroke-linecap="butt" stroke-linejoin="miter" stroke-miterlimit="10" stroke-dasharray="" stroke-dashoffset="0" font-family="none" font-weight="none" font-size="none" text-anchor="none" style="mix-blend-mode: normal"><g transform="scale(5.12,5.12)"><path d="M19,27.106c0,0.57 -0.417,0.894 -1,0.894c-0.583,0 -1,-0.324 -1,-0.894v-10.106h-7.011v11.862c0,2.143 0.815,4.857 4.154,5.746c0.288,0.076 0.561,0.125 0.828,0.164c0.062,0.009 0.123,0.018 0.183,0.025c0.255,0.03 0.503,0.048 0.736,0.048c0.005,0 0.011,0.001 0.017,0.001c0.018,0 0.034,-0.003 0.052,-0.003c0.231,-0.002 0.45,-0.018 0.66,-0.043c0.042,-0.005 0.084,-0.009 0.125,-0.014c0.213,-0.03 0.414,-0.07 0.603,-0.118c0.039,-0.01 0.076,-0.021 0.114,-0.031c0.176,-0.049 0.343,-0.102 0.496,-0.16c0.012,-0.004 0.025,-0.008 0.036,-0.013c0.162,-0.063 0.307,-0.129 0.442,-0.196c0.029,-0.014 0.057,-0.028 0.085,-0.043c0.124,-0.065 0.238,-0.128 0.336,-0.189c0.017,-0.011 0.029,-0.019 0.046,-0.03c0.087,-0.056 0.162,-0.107 0.225,-0.153c0.012,-0.009 0.025,-0.017 0.036,-0.026c0.066,-0.049 0.114,-0.088 0.149,-0.118c0.015,-0.012 0.017,-0.014 0.027,-0.023c0.024,-0.021 0.04,-0.035 0.04,-0.035c-0.137,0.906 -0.793,1.799 -1.889,2.266c-0.365,0.156 -0.779,0.264 -1.24,0.309c-0.228,0.022 -0.471,0.031 -0.718,0.034c-0.06,0.001 -0.12,0 -0.181,0c-0.274,-0.003 -0.553,-0.014 -0.832,-0.041c-0.028,-0.003 -0.055,-0.007 -0.083,-0.01c-0.262,-0.027 -0.521,-0.067 -0.773,-0.115c-0.048,-0.009 -0.097,-0.017 -0.145,-0.027c-0.26,-0.055 -0.507,-0.122 -0.738,-0.2c-0.047,-0.016 -0.091,-0.033 -0.136,-0.05c-0.232,-0.086 -0.451,-0.18 -0.633,-0.291l-0.011,6.724c0.326,0.097 0.659,0.182 0.996,0.26c0.103,0.024 0.208,0.044 0.312,0.066c0.241,0.051 0.483,0.097 0.728,0.137c0.115,0.019 0.23,0.037 0.346,0.054c0.259,0.037 0.519,0.066 0.78,0.089c0.092,0.008 0.182,0.02 0.274,0.027c0.349,0.025 0.698,0.04 1.047,0.041c0.015,0 0.029,0.002 0.044,0.002c0.044,0 0.087,-0.006 0.13,-0.006c0.336,-0.003 0.671,-0.019 1.006,-0.047c0.104,-0.008 0.207,-0.017 0.31,-0.028c0.387,-0.041 0.772,-0.092 1.152,-0.167c4.242,-0.809 6.85,-5.049 6.85,-9.768v-15.91h-6.975zM45,25.5v-1.5h2.966v0l0.034,-6.927l-3,-0.073c-0.375,-3.625 -2.5,-8 -8.375,-8c-6.001,0 -8.625,4.915 -8.625,10v16.352c0.199,0.017 0.387,0.025 0.567,0.025c0.002,0 0.005,0 0.008,0c0.164,0 0.321,-0.008 0.473,-0.023c0.047,-0.005 0.092,-0.014 0.138,-0.02c0.107,-0.014 0.213,-0.03 0.316,-0.052c0.056,-0.012 0.111,-0.029 0.166,-0.043c0.091,-0.024 0.182,-0.05 0.272,-0.082c0.058,-0.02 0.116,-0.043 0.173,-0.067c0.087,-0.035 0.175,-0.074 0.262,-0.117c0.058,-0.028 0.117,-0.058 0.175,-0.089c0.09,-0.048 0.182,-0.103 0.273,-0.159c0.057,-0.035 0.114,-0.069 0.172,-0.107c0.101,-0.067 0.206,-0.142 0.311,-0.219c0.052,-0.038 0.102,-0.072 0.155,-0.113c0.156,-0.119 0.317,-0.247 0.486,-0.389c0.004,-0.003 0.007,-0.006 0.011,-0.009c0.961,-0.784 1.537,-1.931 1.834,-3.157c0.178,-0.736 0.256,-1.5 0.256,-2.231l-0.031,-0.52h3l-0.017,-6.98h-3v-2.099c0,-1.3 0.5,-2.901 2.375,-2.901c2.25,0 2.625,1.655 2.625,2.955v6.92c0,0.318 0.015,0.634 0.045,0.947c0.148,1.562 0.66,3.035 1.453,4.305c0.635,1.016 1.45,1.903 2.405,2.601c0.477,0.349 0.99,0.651 1.531,0.898c1.084,0.495 2.286,0.771 3.565,0.771v-7.397c-1.307,0 -2.874,-0.875 -2.999,-2.5zM8.995,35.312c0.092,-0.027 0.19,-0.046 0.278,-0.078c0.152,-0.055 0.286,-0.124 0.422,-0.192c0.065,-0.032 0.138,-0.058 0.199,-0.093c0.188,-0.108 0.358,-0.227 0.505,-0.354c-1.099,-0.752 -2.399,-2.508 -2.399,-5.484v-19.111h-6v19.043c0,1.95 0.616,4.143 2.229,5.29c0.308,0.219 0.616,0.401 0.921,0.554c0.104,0.052 0.206,0.083 0.309,0.128c0.2,0.087 0.399,0.176 0.595,0.238c0.121,0.038 0.237,0.057 0.356,0.086c0.174,0.042 0.348,0.089 0.517,0.113c0.124,0.018 0.241,0.02 0.361,0.029c0.127,0.009 0.259,0.03 0.382,0.03c0.028,0 0.052,-0.006 0.079,-0.007c0.163,-0.003 0.315,-0.022 0.469,-0.04c0.112,-0.013 0.227,-0.018 0.334,-0.037c0.156,-0.029 0.298,-0.073 0.443,-0.115z"></path></g></g></svg>